#!OML:ASF E:\CV Data\Top Level 1\Subject 1\Session 1\player.ASF
:FULLY-SPECIFIED
:DEGREES
901
root 1.97862 17.8201 -21.7025 11.289 4.89822 -3.79863
lowerback 7.61585 -0.624022 6.51556
upperback 1.51943 -0.136409 5.38522
thorax -2.70151 -0.10053 1.94723
lowerneck -4.003 -14.3904 -18.3848
upperneck 17.6336 -19.862 10.9839
head 9.15482 -9.82463 4.33034
rclavicle 1.90833e-014 1.43125e-014
rhumerus -32.9497 -31.6013 -49.1768
rradius 83.0434
rwrist -64.9809
rhand 11.6254 -16.7353
rfingers 7.12502
rthumb 36.6663 -42.8853
lclavicle 1.90833e-014 1.43125e-014
lhumerus -46.1141 14.3432 72.5685
lradius 41.8088
lwrist 9.16579
lhand -19.6196 15.4969
lfingers 7.12502
lthumb 6.70704 45.3707
rfemur -17.2808 1.99826 24.2831
rtibia 28.8726
rfoot -19.2995 -15.6753
rtoes 0.882129
lfemur -19.2157 4.13471 -11.5358
ltibia 26.397
lfoot -8.89577 11.3648
ltoes -7.94355
902
root 1.99984 17.8167 -21.7092 11.2276 4.75885 -3.86697
lowerback 7.50115 -0.607537 6.30202
upperback 1.39897 -0.138121 5.26207
thorax -2.76287 -0.10264 1.93714
lowerneck -3.52301 -14.5498 -18.5237
upperneck 16.6126 -20.1516 11.4448
head 8.83186 -9.96214 4.49694
rclavicle -2.78299e-015 5.40694e-014
rhumerus -32.4764 -30.7048 -50.3887
rradius 83.015
rwrist -65.397
rhand 11.5228 -16.5076
rfingers 7.12502
rthumb 36.5692 -42.6822
lclavicle -2.78299e-015 5.40694e-014
lhumerus -45.8616 13.3797 73.717
lradius 43.2928
lwrist 9.6539
lhand -19.8286 15.4527
lfingers 7.12502
lthumb 6.50532 45.3328
rfemur -17.2728 2.03782 24.2589
rtibia 28.9286
rfoot -19.2789 -15.5834
rtoes 0.749545
lfemur -18.8854 3.87734 -11.5454
ltibia 26.0301
lfoot -8.95173 11.8567
ltoes -7.78283
903
root 2.02136 17.8138 -21.7167 11.1628 4.61762 -3.9373
lowerback 7.38828 -0.591074 6.0934
upperback 1.28409 -0.13957 5.13709
thorax -2.81927 -0.104318 1.92252
lowerneck -3.06274 -14.7076 -18.6491
upperneck 15.5964 -20.4331 11.9079
head 8.51766 -10.0968 4.66254
rclavicle 1.31198e-014 -2.38542e-014
rhumerus -31.9922 -29.7958 -51.6585
rradius 82.9695
rwrist -65.9249
rhand 11.4955 -16.3934
rfingers 7.12502
rthumb 36.5434 -42.5746
lclavicle 1.31198e-014 -2.38542e-014
lhumerus -45.5679 12.386 74.8778
lradius 44.7822
lwrist 10.0939
lhand -19.9771 15.3128
lfingers 7.12502
lthumb 6.36188 45.1972
rfemur -17.2598 2.07479 24.236
rtibia 28.978
rfoot -19.2552 -15.4857
rtoes 0.635591
lfemur -18.5878 3.63352 -11.5682
ltibia 25.726
lfoot -8.98792 12.3874
ltoes -7.62063
904
root 2.04317 17.8117 -21.7251 11.0953 4.48434 -4.00785
lowerback 7.27456 -0.578055 5.88831
upperback 1.17306 -0.145415 5.01317
thorax -2.87109 -0.107896 1.90762
lowerneck -2.61735 -14.8601 -18.7691
upperneck 14.5942 -20.702 12.3735
head 8.2142 -10.2271 4.82927
rclavicle 1.78906e-014 -9.54166e-015
rhumerus -31.4961 -28.8634 -52.983
rradius 82.8724
rwrist -66.4507
rhand 11.7344 -16.3221
rfingers 7.12502
rthumb 36.7695 -42.4458
lclavicle 1.78906e-014 -9.54166e-015
lhumerus -45.2441 11.3534 76.0562
lradius 46.2936
lwrist 10.519
lhand -20.0888 15.1341
lfingers 7.12502
lthumb 6.25409 45.0218
rfemur -17.238 2.10228 24.2137
rtibia 29.0126
rfoot -19.2251 -15.3838
rtoes 0.5375
lfemur -18.3261 3.36753 -11.5965
ltibia 25.4712
lfoot -8.98993 12.9513
ltoes -7.42234
905
root 2.06528 17.8106 -21.7343 11.0234 4.35794 -4.07807
lowerback 7.15705 -0.569703 5.68446
upperback 1.06857 -0.157876 4.89167
thorax -2.91388 -0.114378 1.89523
lowerneck -2.19246 -15.0042 -18.8858
upperneck 13.6155 -20.9534 12.8379
head 7.9241 -10.3506 4.99653
rclavicle -1.98785e-014 4.29375e-014
rhumerus -30.9853 -27.9014 -54.3603
rradius 82.7429
rwrist -66.9348
rhand 12.1871 -16.4281
rfingers 7.12502
rthumb 37.1976 -42.4412
lclavicle -1.98785e-014 4.29375e-014
lhumerus -44.893 10.2892 77.2483
lradius 47.8334
lwrist 10.9318
lhand -20.1764 14.9357
lfingers 7.12502
lthumb 6.16954 44.8259
rfemur -17.2041 2.11807 24.1913
rtibia 29.0287
rfoot -19.1852 -15.2771
rtoes 0.438955
lfemur -18.0981 3.07141 -11.6258
ltibia 25.2571
lfoot -8.94287 13.5314
ltoes -7.26136
906
root 2.08761 17.8103 -21.7441 10.9448 4.23942 -4.14048
lowerback 7.02669 -0.566595 5.47826
upperback 0.975751 -0.179301 4.76738
thorax -2.93724 -0.124746 1.88194
lowerneck -1.78694 -15.1358 -18.9987
upperneck 12.6688 -21.1835 13.3042
head 7.64891 -10.4651 5.16578
rclavicle 1.23246e-014 3.57812e-014
rhumerus -30.4551 -26.9204 -55.7931
rradius 82.569
rwrist -67.3143
rhand 12.6549 -16.5912
rfingers 7.12502
rthumb 37.6398 -42.4875
lclavicle 1.23246e-014 3.57812e-014
lhumerus -44.5123 9.18693 78.4493
lradius 49.4048
lwrist 11.3466
lhand -20.2676 14.7307
lfingers 7.12502
lthumb 6.08149 44.6234
rfemur -17.1555 2.13002 24.1606
rtibia 29.027
rfoot -19.1354 -15.176
rtoes 0.345817
lfemur -17.8981 2.74156 -11.6603
ltibia 25.082
lfoot -8.85507 14.1122
ltoes -7.11604
907
root 2.1101 17.8108 -21.7546 10.8611 4.13125 -4.19224
lowerback 6.9192 -0.569398 5.26487
upperback 0.877355 -0.206331 4.64165
thorax -2.97905 -0.138001 1.87219
lowerneck -1.40886 -15.2553 -19.1038
upperneck 11.7745 -21.3914 13.7555
head 7.39342 -10.5703 5.33034
rclavicle -1.51076e-014 3.97569e-015
rhumerus -29.9239 -25.9166 -57.2633
rradius 82.3563
rwrist -67.5808
rhand 12.9508 -16.7655
rfingers 7.12502
rthumb 37.9194 -42.5866
lclavicle -1.51076e-014 3.97569e-015
lhumerus -44.1304 8.03223 79.6631
lradius 51.042
lwrist 11.7866
lhand -20.3653 14.6459
lfingers 7.12502
lthumb 5.98714 44.5413
rfemur -17.0957 2.14321 24.1187
rtibia 29.0122
rfoot -19.0789 -15.0878
rtoes 0.261072
lfemur -17.7228 2.39745 -11.7012
ltibia 24.9454
lfoot -8.75217 14.662
ltoes -6.9504
908
root 2.13253 17.812 -21.766 10.7763 4.03641 -4.22856
lowerback 6.8475 -0.57808 5.03785
upperback 0.761871 -0.237799 4.51404
thorax -3.05847 -0.153769 1.86933
lowerneck -1.06901 -15.3615 -19.2053
upperneck 10.9622 -21.576 14.1821
head 7.16727 -10.6651 5.48638
rclavicle -7.95139e-015 -6.36111e-015
rhumerus -29.4123 -24.8902 -58.7552
rradius 82.1097
rwrist -67.7563
rhand 12.9836 -16.9286
rfingers 7.12502
rthumb 37.9504 -42.7413
lclavicle -7.95139e-015 -6.36111e-015
lhumerus -43.7613 6.82818 80.8831
lradius 52.7338
lwrist 12.2328
lhand -20.4996 14.6418
lfingers 7.12502
lthumb 5.85748 44.5408
rfemur -17.0336 2.16037 24.0618
rtibia 28.9907
rfoot -19.0162 -15.0206
rtoes 0.178546
lfemur -17.5753 2.06165 -11.7523
ltibia 24.8466
lfoot -8.65039 15.1459
ltoes -6.77124
909
root 2.15494 17.8136 -21.7783 10.6887 3.95184 -4.24932
lowerback 6.78519 -0.587906 4.80152
upperback 0.653377 -0.27138 4.38207
thorax -3.13567 -0.170154 1.86752
lowerneck -0.79199 -15.462 -19.2987
upperneck 10.2225 -21.7448 14.5935
head 6.97253 -10.7508 5.63305
rclavicle -1.63003e-014 5.56597e-015
rhumerus -28.8918 -23.8715 -60.2784
rradius 81.8234
rwrist -67.8462
rhand 12.7013 -16.9762
rfingers 7.12502
rthumb 37.6837 -42.8608
lclavicle -1.63003e-014 5.56597e-015
lhumerus -43.3625 5.5784 82.107
lradius 54.4615
lwrist 12.6738
lhand -20.658 14.6177
lfingers 7.12502
lthumb 5.70458 44.5209
rfemur -16.9713 2.17786 23.9894
rtibia 28.9683
rfoot -18.9484 -14.9694
rtoes 0.10192
lfemur -17.4506 1.76555 -11.8142
ltibia 24.7821
lfoot -8.566 15.5323
ltoes -6.58223
910
root 2.17704 17.8154 -21.7918 10.6082 3.8877 -4.259
lowerback 6.72313 -0.601804 4.55998
upperback 0.54745 -0.311015 4.24921
thorax -3.21012 -0.189172 1.86839
lowerneck -0.566601 -15.5539 -19.3913
upperneck 9.55337 -21.896 14.9926
head 6.80678 -10.8272 5.77323
rclavicle 5.96354e-016 -1.35174e-014
rhumerus -28.3657 -22.8547 -61.8273
rradius 81.4893
rwrist -67.8536
rhand 12.3618 -16.9999
rfingers 7.12502
rthumb 37.3629 -42.9697
lclavicle 5.96354e-016 -1.35174e-014
lhumerus -42.9352 4.29497 83.3221
lradius 56.2031
lwrist 13.0853
lhand -20.8232 14.5178
lfingers 7.12502
lthumb 5.54509 44.4253
rfemur -16.9226 2.19448 23.9088
rtibia 28.9484
rfoot -18.8748 -14.941
rtoes 0.0302634
lfemur -17.3627 1.53312 -11.881
ltibia 24.7474
lfoot -8.50365 15.7923
ltoes -6.42522
